<svg id="Layer_1" xmlns="http://www.w3.org/2000/svg" viewBox="0 0 668 204"><style>.st0{fill:#231f20}</style><path class="st0" d="M21.638 67.111h.458c5.961-9.398 16.728-16.728 28.417-16.728 13.977 0 24.061 7.103 30.938 19.019 6.642-11.458 19.477-19.019 32.996-19.019 28.189 0 35.522 21.998 35.522 46.289v64.164h-20.624v-60.729c0-13.747-1.835-31.391-19.94-31.391-21.998 0-23.603 22.914-23.603 39.413v52.708H65.181v-56.832c0-13.979-.691-35.289-19.707-35.289-22.001 0-23.835 22.687-23.835 39.413v52.708H1.014V53.589h20.624v13.522zM175.89 53.593h20.624v107.244H175.89zM243.06 68.027h.456c6.419-11.458 19.252-17.647 32.312-17.647 30.25 0 38.043 20.393 38.043 46.52v63.939h-20.626V99.421c0-18.331-2.519-30.705-23.603-30.705-26.582 0-26.582 23.37-26.582 42.85v49.273h-20.626V53.59h20.626v14.437zM365.66 160.836h-20.626V72.839h-11.463V53.592h11.463V11.489h20.626v42.103h20.163v19.247H365.66zM413.43 110.651c.228 18.333 12.603 35.519 32.31 35.519 15.812 0 24.294-8.021 32.085-20.854l17.417 9.854c-10.084 18.566-28.875 29.333-49.731 29.333-32.768 0-52.704-24.749-52.704-56.371 0-33.003 17.645-57.75 52.248-57.75 34.143 0 50.187 25.205 50.187 57.062v3.207H413.43zm61.187-15.582c-2.523-16.045-13.065-26.815-29.564-26.815-16.042 0-27.957 11.458-30.48 26.815h60.044zM598.177 144.107h-.463c-8.247 12.145-21.312 20.396-36.436 20.396-32.998 0-51.331-27.27-51.331-57.978 0-29.331 19.477-56.143 50.415-56.143 16.04 0 28.873 8.249 37.352 21.082h.463V-.069h20.621v160.904h-20.621v-16.728zm1.142-36.894c0-20.854-12.603-38.499-34.831-38.499-21.312 0-33.917 18.561-33.917 38.499 0 20.166 12.147 38.957 33.917 38.957 22.454 0 34.831-17.875 34.831-38.957M200.41 19.77c0 7.836-6.351 14.189-14.186 14.189-7.838 0-14.189-6.353-14.189-14.189s6.351-14.188 14.189-14.188c7.835-.001 14.186 6.352 14.186 14.188M666.986 150.452c0 7.836-6.351 14.189-14.186 14.189s-14.189-6.353-14.189-14.189 6.353-14.186 14.189-14.186 14.186 6.35 14.186 14.186"/></svg>