<svg xmlns="http://www.w3.org/2000/svg" id="Layer_1" data-name="Layer 1" viewBox="0 0 1279.94 324.45"><defs><style>.cls-1,.cls-2{fill:#231f20;}.cls-1{fill-rule:evenodd;}</style></defs><title>PAX®</title><path class="cls-1" d="M585.65,353.25c-.1-.1-8.93-7.51-9.07-7.61-14.27-10.68-30.7-17.92-49.33-19.86-.43,0-2.12-.19-2.55-.23-1-.09-10.56-.35-11.17-.34H353.74a29.45,29.45,0,0,0-28.19,27.86V622.19a27.46,27.46,0,0,0,54.92,0V530.76H518.67a102.3,102.3,0,0,0,66.51-27.28c.83-.75,6.23-6.27,6.36-6.42a88.57,88.57,0,0,0,12.66-17.34,102.65,102.65,0,0,0-18.55-126.47ZM514.57,481.66H380.41V374.28H514.5a53.69,53.69,0,0,1,.07,107.38Z" transform="translate(-325.55 -325.21)"/><path class="cls-2" d="M1057.41,611.65,986.5,457.73l-50.44-113c-3.86-9.61-12.21-17.46-22.7-19.18a31.3,31.3,0,0,0-3.53-.23H888a31,31,0,0,0-3.51.23C874,327.25,865,335.1,861.11,344.71l-50.43,113L739.77,611.65a26.7,26.7,0,0,0,18.56,37.25,26.42,26.42,0,0,0,4.3.7h4.65a27.3,27.3,0,0,0,22-14.77l24.27-54.93H983.63l24.27,54.93a27.33,27.33,0,0,0,22,14.77h4.65a27.29,27.29,0,0,0,22.86-38ZM898,387.94h1.14l64.39,142.81H833.75Z" transform="translate(-325.55 -325.21)"/><path class="cls-1" d="M1265.36,334a29.71,29.71,0,0,0-42,0h0a29.71,29.71,0,0,0,0,42l69.76,69.76a29.72,29.72,0,1,0,42-42Z" transform="translate(-325.55 -325.21)"/><path class="cls-1" d="M1461.12,529.17a29.73,29.73,0,0,0-42,0h0a29.71,29.71,0,0,0,0,42L1488.84,641a29.71,29.71,0,0,0,42,0h0a29.71,29.71,0,0,0,0-42Z" transform="translate(-325.55 -325.21)"/><path class="cls-1" d="M1419.08,445.76a29.73,29.73,0,0,0,42,0L1530.87,376a29.71,29.71,0,0,0,0-42h0a29.71,29.71,0,0,0-42,0l-69.76,69.76a29.71,29.71,0,0,0,0,42Z" transform="translate(-325.55 -325.21)"/><path class="cls-1" d="M1335.12,529.17a29.71,29.71,0,0,0-42,0l-69.76,69.76a29.71,29.71,0,0,0,0,42h0a29.71,29.71,0,0,0,42,0l69.76-69.76a29.71,29.71,0,0,0,0-42Z" transform="translate(-325.55 -325.21)"/><path class="cls-2" d="M1595.57,328.85a16,16,0,0,1,5.2,3.48,16.46,16.46,0,0,1,3.46,5.22,17.24,17.24,0,0,1,0,12.89,15.9,15.9,0,0,1-8.66,8.64,17.29,17.29,0,0,1-13,0,15.9,15.9,0,0,1-8.66-8.64,16.69,16.69,0,0,1,3.46-18.11,15.94,15.94,0,0,1,5.2-3.48,17.29,17.29,0,0,1,13,0Zm-12,2.18a13.92,13.92,0,0,0-4.39,3,13.65,13.65,0,0,0-2.88,4.45,15.12,15.12,0,0,0,0,11A13.86,13.86,0,0,0,1599,354a14.06,14.06,0,0,0,2.91-4.45,14.85,14.85,0,0,0,0-11A14.06,14.06,0,0,0,1599,334a14.1,14.1,0,0,0-15.4-3Zm-.42,22.43V334.51h7.27q3.22,0,4.69,1.35a5,5,0,0,1,1.48,3.9,5.75,5.75,0,0,1-.37,2.16,4.49,4.49,0,0,1-1,1.56,5.07,5.07,0,0,1-1.52,1,8.28,8.28,0,0,1-1.83.55l5.64,8.41h-2.73l-5.33-8.41h-3.92v8.41Zm7.51-10.46a6.18,6.18,0,0,0,1.83-.38,2.67,2.67,0,0,0,1.28-1,3.19,3.19,0,0,0,.49-1.87,3.1,3.1,0,0,0-.38-1.63,2.9,2.9,0,0,0-1-1,4.28,4.28,0,0,0-1.43-.51,10,10,0,0,0-1.68-.13h-4.27v6.56h3.08C1589.27,343.06,1590,343,1590.65,343Z" transform="translate(-325.55 -325.21)"/></svg>